<svg width="21" height="20" viewBox="0 0 21 20" fill="none" xmlns="http://www.w3.org/2000/svg">
<path d="M17.1667 9.16667C16.9457 9.16667 16.7337 9.25446 16.5774 9.41074C16.4211 9.56702 16.3333 9.77899 16.3333 10V15C16.3333 15.221 16.2455 15.433 16.0893 15.5893C15.933 15.7455 15.721 15.8333 15.5 15.8333H5.5C5.27899 15.8333 5.06702 15.7455 4.91074 15.5893C4.75446 15.433 4.66667 15.221 4.66667 15V5C4.66667 4.77899 4.75446 4.56702 4.91074 4.41074C5.06702 4.25446 5.27899 4.16667 5.5 4.16667H10.5C10.721 4.16667 10.933 4.07887 11.0893 3.92259C11.2455 3.76631 11.3333 3.55435 11.3333 3.33333C11.3333 3.11232 11.2455 2.90036 11.0893 2.74408C10.933 2.5878 10.721 2.5 10.5 2.5H5.5C4.83696 2.5 4.20107 2.76339 3.73223 3.23223C3.26339 3.70107 3 4.33696 3 5V15C3 15.663 3.26339 16.2989 3.73223 16.7678C4.20107 17.2366 4.83696 17.5 5.5 17.5H15.5C16.163 17.5 16.7989 17.2366 17.2678 16.7678C17.7366 16.2989 18 15.663 18 15V10C18 9.77899 17.9122 9.56702 17.7559 9.41074C17.5996 9.25446 17.3877 9.16667 17.1667 9.16667Z" fill="#0061D9"/>
<path d="M13.8333 4.16667H15.15L9.90833 9.4C9.83023 9.47747 9.76823 9.56964 9.72592 9.67119C9.68362 9.77274 9.66183 9.88166 9.66183 9.99167C9.66183 10.1017 9.68362 10.2106 9.72592 10.3121C9.76823 10.4137 9.83023 10.5059 9.90833 10.5833C9.9858 10.6614 10.078 10.7234 10.1795 10.7657C10.2811 10.8081 10.39 10.8298 10.5 10.8298C10.61 10.8298 10.7189 10.8081 10.8205 10.7657C10.922 10.7234 11.0142 10.6614 11.0917 10.5833L16.3333 5.35V6.66667C16.3333 6.88768 16.4211 7.09964 16.5774 7.25592C16.7337 7.4122 16.9457 7.5 17.1667 7.5C17.3877 7.5 17.5996 7.4122 17.7559 7.25592C17.9122 7.09964 18 6.88768 18 6.66667V3.33333C18 3.11232 17.9122 2.90036 17.7559 2.74408C17.5996 2.5878 17.3877 2.5 17.1667 2.5H13.8333C13.6123 2.5 13.4004 2.5878 13.2441 2.74408C13.0878 2.90036 13 3.11232 13 3.33333C13 3.55435 13.0878 3.76631 13.2441 3.92259C13.4004 4.07887 13.6123 4.16667 13.8333 4.16667Z" fill="#0061D9"/>
</svg>
