<svg width="257" height="34" viewBox="0 0 257 34" fill="none" xmlns="http://www.w3.org/2000/svg">
<path d="M0 18.304V12.6435H0.973011C1.29972 12.383 1.60511 12.0161 1.8892 11.5426C2.1733 11.0691 2.41477 10.4205 2.61364 9.59659C2.8125 8.77273 2.94981 7.70739 3.02557 6.40057L3.40909 0.25H12.706V12.6435H14.3253V18.2898H11.7969V14.7955H2.52841V18.304H0ZM4.04119 12.6435H10.1776V2.45881H5.78125L5.55398 6.40057C5.49242 7.39015 5.39299 8.27557 5.25568 9.05682C5.11837 9.83807 4.94555 10.527 4.73722 11.1236C4.52888 11.7154 4.29688 12.2221 4.04119 12.6435Z" fill="#111111"/>
<path d="M25.8256 0.25V2.45881H19.1069V14.7955H16.4719V0.25H25.8256Z" fill="#111111"/>
<path d="M29.3537 14.9943V12.7784H30.1847C30.5587 12.7784 30.8665 12.724 31.108 12.6151C31.3494 12.5062 31.5436 12.3499 31.6903 12.1463C31.8419 11.9427 31.9673 11.706 32.0668 11.4361L32.2585 10.946L27.0597 0.25H29.8153L33.4375 8.03409L36.5696 0.25H39.2827L34.2685 12.1108C34.0365 12.6222 33.7689 13.098 33.4659 13.5384C33.1629 13.974 32.7675 14.3267 32.2798 14.5966C31.7969 14.8617 31.1671 14.9943 30.3906 14.9943H29.3537Z" fill="#111111"/>
<path d="M50.0032 11.7955V0.159091H51.7589V5.21591H57.56V0.159091H59.3214V11.7955H57.56V6.72159H51.7589V11.7955H50.0032Z" fill="#0061D9"/>
<path d="M71.8261 5.97727C71.8261 7.2197 71.5989 8.28788 71.1443 9.18182C70.6898 10.072 70.0667 10.7576 69.275 11.2386C68.4871 11.7159 67.5913 11.9545 66.5875 11.9545C65.5799 11.9545 64.6803 11.7159 63.8886 11.2386C63.1008 10.7576 62.4795 10.0701 62.025 9.17614C61.5705 8.2822 61.3432 7.21591 61.3432 5.97727C61.3432 4.73485 61.5705 3.66856 62.025 2.77841C62.4795 1.88447 63.1008 1.19886 63.8886 0.721591C64.6803 0.24053 65.5799 0 66.5875 0C67.5913 0 68.4871 0.24053 69.275 0.721591C70.0667 1.19886 70.6898 1.88447 71.1443 2.77841C71.5989 3.66856 71.8261 4.73485 71.8261 5.97727ZM70.0875 5.97727C70.0875 5.0303 69.9341 4.23295 69.6273 3.58523C69.3242 2.93371 68.9076 2.44129 68.3773 2.10795C67.8508 1.77083 67.2542 1.60227 66.5875 1.60227C65.917 1.60227 65.3186 1.77083 64.792 2.10795C64.2655 2.44129 63.8489 2.93371 63.542 3.58523C63.239 4.23295 63.0875 5.0303 63.0875 5.97727C63.0875 6.92424 63.239 7.72348 63.542 8.375C63.8489 9.02273 64.2655 9.51515 64.792 9.85227C65.3186 10.1856 65.917 10.3523 66.5875 10.3523C67.2542 10.3523 67.8508 10.1856 68.3773 9.85227C68.9076 9.51515 69.3242 9.02273 69.6273 8.375C69.9341 7.72348 70.0875 6.92424 70.0875 5.97727Z" fill="#0061D9"/>
<path d="M73.8551 11.7955V0.159091H78.0028C78.9081 0.159091 79.6581 0.323864 80.2528 0.653409C80.8475 0.982954 81.2926 1.43371 81.588 2.00568C81.8835 2.57386 82.0312 3.21402 82.0312 3.92614C82.0312 4.64205 81.8816 5.28598 81.5823 5.85795C81.2869 6.42614 80.8399 6.87689 80.2414 7.21023C79.6467 7.53977 78.8986 7.70455 77.9971 7.70455H75.1448V6.21591H77.838C78.41 6.21591 78.874 6.11742 79.2301 5.92045C79.5861 5.7197 79.8475 5.44697 80.0141 5.10227C80.1808 4.75758 80.2641 4.36553 80.2641 3.92614C80.2641 3.48674 80.1808 3.09659 80.0141 2.75568C79.8475 2.41477 79.5842 2.14773 79.2244 1.95455C78.8683 1.76136 78.3986 1.66477 77.8153 1.66477H75.6107V11.7955H73.8551Z" fill="#0061D9"/>
<path d="M83.9294 0.159091H86.0601L89.7647 9.20455H89.901L93.6056 0.159091H95.7362V11.7955H94.0658V3.375H93.9578L90.526 11.7784H89.1397L85.7078 3.36932H85.5999V11.7955H83.9294V0.159091Z" fill="#0061D9"/>
<path d="M99.1118 11.7955H97.2481L101.436 0.159091H103.464L107.652 11.7955H105.788L102.498 2.27273H102.407L99.1118 11.7955ZM99.4243 7.23864H105.47V8.71591H99.4243V7.23864Z" fill="#0061D9"/>
<path d="M107.223 1.67045V0.159091H116.229V1.67045H112.598V11.7955H110.848V1.67045H107.223Z" fill="#0061D9"/>
<path d="M118.059 0.159091H119.797V8.70455H119.905L125.826 0.159091H127.451V11.7955H125.695V3.26136H125.587L119.678 11.7955H118.059V0.159091Z" fill="#0061D9"/>
<path d="M129.852 11.7955V0.159091H134.113C134.939 0.159091 135.623 0.295455 136.164 0.568182C136.706 0.837121 137.111 1.20265 137.38 1.66477C137.649 2.12311 137.784 2.64015 137.784 3.21591C137.784 3.70076 137.695 4.10985 137.517 4.44318C137.339 4.77273 137.1 5.03788 136.801 5.23864C136.505 5.43561 136.18 5.57955 135.824 5.67045V5.78409C136.21 5.80303 136.587 5.92803 136.954 6.15909C137.325 6.38636 137.632 6.71023 137.875 7.13068C138.117 7.55114 138.238 8.0625 138.238 8.66477C138.238 9.25947 138.098 9.79356 137.818 10.267C137.541 10.7367 137.113 11.1098 136.534 11.3864C135.954 11.6591 135.214 11.7955 134.312 11.7955H129.852ZM131.608 10.2898H134.142C134.983 10.2898 135.585 10.1269 135.949 9.80114C136.312 9.47538 136.494 9.06818 136.494 8.57955C136.494 8.21212 136.401 7.875 136.216 7.56818C136.03 7.26136 135.765 7.01705 135.42 6.83523C135.079 6.65341 134.674 6.5625 134.204 6.5625H131.608V10.2898ZM131.608 5.19318H133.96C134.354 5.19318 134.708 5.11742 135.022 4.96591C135.341 4.81439 135.592 4.60227 135.778 4.32955C135.967 4.05303 136.062 3.72727 136.062 3.35227C136.062 2.87121 135.894 2.4678 135.556 2.14205C135.219 1.81629 134.702 1.65341 134.005 1.65341H131.608V5.19318Z" fill="#0061D9"/>
<path d="M140.161 11.7955V0.159091H141.916V5.21591H147.717V0.159091H149.479V11.7955H147.717V6.72159H141.916V11.7955H140.161Z" fill="#0061D9"/>
<path d="M161.984 5.97727C161.984 7.2197 161.756 8.28788 161.302 9.18182C160.847 10.072 160.224 10.7576 159.432 11.2386C158.645 11.7159 157.749 11.9545 156.745 11.9545C155.737 11.9545 154.838 11.7159 154.046 11.2386C153.258 10.7576 152.637 10.0701 152.182 9.17614C151.728 8.2822 151.501 7.21591 151.501 5.97727C151.501 4.73485 151.728 3.66856 152.182 2.77841C152.637 1.88447 153.258 1.19886 154.046 0.721591C154.838 0.24053 155.737 0 156.745 0C157.749 0 158.645 0.24053 159.432 0.721591C160.224 1.19886 160.847 1.88447 161.302 2.77841C161.756 3.66856 161.984 4.73485 161.984 5.97727ZM160.245 5.97727C160.245 5.0303 160.092 4.23295 159.785 3.58523C159.482 2.93371 159.065 2.44129 158.535 2.10795C158.008 1.77083 157.412 1.60227 156.745 1.60227C156.075 1.60227 155.476 1.77083 154.95 2.10795C154.423 2.44129 154.006 2.93371 153.7 3.58523C153.397 4.23295 153.245 5.0303 153.245 5.97727C153.245 6.92424 153.397 7.72348 153.7 8.375C154.006 9.02273 154.423 9.51515 154.95 9.85227C155.476 10.1856 156.075 10.3523 156.745 10.3523C157.412 10.3523 158.008 10.1856 158.535 9.85227C159.065 9.51515 159.482 9.02273 159.785 8.375C160.092 7.72348 160.245 6.92424 160.245 5.97727Z" fill="#0061D9"/>
<path d="M169.018 5.23864V6.71591H163.859V5.23864H169.018Z" fill="#0061D9"/>
<path d="M180.355 0.159091V11.7955H178.605V1.65909H173.128V11.7955H171.378V0.159091H180.355Z" fill="#0061D9"/>
<path d="M182.88 11.7955V0.159091H187.028C187.933 0.159091 188.683 0.323864 189.278 0.653409C189.872 0.982954 190.318 1.43371 190.613 2.00568C190.908 2.57386 191.056 3.21402 191.056 3.92614C191.056 4.64205 190.907 5.28598 190.607 5.85795C190.312 6.42614 189.865 6.87689 189.266 7.21023C188.672 7.53977 187.924 7.70455 187.022 7.70455H184.17V6.21591H186.863C187.435 6.21591 187.899 6.11742 188.255 5.92045C188.611 5.7197 188.872 5.44697 189.039 5.10227C189.206 4.75758 189.289 4.36553 189.289 3.92614C189.289 3.48674 189.206 3.09659 189.039 2.75568C188.872 2.41477 188.609 2.14773 188.249 1.95455C187.893 1.76136 187.424 1.66477 186.84 1.66477H184.636V11.7955H182.88Z" fill="#0061D9"/>
<path d="M192.703 11.7955H190.839L195.027 0.159091H197.055L201.243 11.7955H199.379L196.089 2.27273H195.998L192.703 11.7955ZM193.016 7.23864H199.061V8.71591H193.016V7.23864Z" fill="#0061D9"/>
<path d="M202.763 11.7955V0.159091H207.025C207.85 0.159091 208.534 0.295455 209.076 0.568182C209.617 0.837121 210.023 1.20265 210.292 1.66477C210.561 2.12311 210.695 2.64015 210.695 3.21591C210.695 3.70076 210.606 4.10985 210.428 4.44318C210.25 4.77273 210.011 5.03788 209.712 5.23864C209.417 5.43561 209.091 5.57955 208.735 5.67045V5.78409C209.121 5.80303 209.498 5.92803 209.865 6.15909C210.237 6.38636 210.543 6.71023 210.786 7.13068C211.028 7.55114 211.15 8.0625 211.15 8.66477C211.15 9.25947 211.009 9.79356 210.729 10.267C210.453 10.7367 210.025 11.1098 209.445 11.3864C208.865 11.6591 208.125 11.7955 207.223 11.7955H202.763ZM204.519 10.2898H207.053C207.894 10.2898 208.496 10.1269 208.86 9.80114C209.223 9.47538 209.405 9.06818 209.405 8.57955C209.405 8.21212 209.312 7.875 209.127 7.56818C208.941 7.26136 208.676 7.01705 208.331 6.83523C207.99 6.65341 207.585 6.5625 207.115 6.5625H204.519V10.2898ZM204.519 5.19318H206.871C207.265 5.19318 207.619 5.11742 207.934 4.96591C208.252 4.81439 208.504 4.60227 208.689 4.32955C208.879 4.05303 208.973 3.72727 208.973 3.35227C208.973 2.87121 208.805 2.4678 208.468 2.14205C208.131 1.81629 207.614 1.65341 206.917 1.65341H204.519V5.19318Z" fill="#0061D9"/>
<path d="M223.18 5.97727C223.18 7.2197 222.953 8.28788 222.498 9.18182C222.044 10.072 221.42 10.7576 220.629 11.2386C219.841 11.7159 218.945 11.9545 217.941 11.9545C216.934 11.9545 216.034 11.7159 215.242 11.2386C214.455 10.7576 213.833 10.0701 213.379 9.17614C212.924 8.2822 212.697 7.21591 212.697 5.97727C212.697 4.73485 212.924 3.66856 213.379 2.77841C213.833 1.88447 214.455 1.19886 215.242 0.721591C216.034 0.24053 216.934 0 217.941 0C218.945 0 219.841 0.24053 220.629 0.721591C221.42 1.19886 222.044 1.88447 222.498 2.77841C222.953 3.66856 223.18 4.73485 223.18 5.97727ZM221.441 5.97727C221.441 5.0303 221.288 4.23295 220.981 3.58523C220.678 2.93371 220.261 2.44129 219.731 2.10795C219.205 1.77083 218.608 1.60227 217.941 1.60227C217.271 1.60227 216.672 1.77083 216.146 2.10795C215.619 2.44129 215.203 2.93371 214.896 3.58523C214.593 4.23295 214.441 5.0303 214.441 5.97727C214.441 6.92424 214.593 7.72348 214.896 8.375C215.203 9.02273 215.619 9.51515 216.146 9.85227C216.672 10.1856 217.271 10.3523 217.941 10.3523C218.608 10.3523 219.205 10.1856 219.731 9.85227C220.261 9.51515 220.678 9.02273 220.981 8.375C221.288 7.72348 221.441 6.92424 221.441 5.97727Z" fill="#0061D9"/>
<path d="M225.209 11.7955V0.159091H229.47C230.296 0.159091 230.98 0.295455 231.521 0.568182C232.063 0.837121 232.468 1.20265 232.737 1.66477C233.006 2.12311 233.141 2.64015 233.141 3.21591C233.141 3.70076 233.052 4.10985 232.874 4.44318C232.696 4.77273 232.457 5.03788 232.158 5.23864C231.862 5.43561 231.536 5.57955 231.18 5.67045V5.78409C231.567 5.80303 231.944 5.92803 232.311 6.15909C232.682 6.38636 232.989 6.71023 233.232 7.13068C233.474 7.55114 233.595 8.0625 233.595 8.66477C233.595 9.25947 233.455 9.79356 233.175 10.267C232.898 10.7367 232.47 11.1098 231.891 11.3864C231.311 11.6591 230.571 11.7955 229.669 11.7955H225.209ZM226.964 10.2898H229.499C230.339 10.2898 230.942 10.1269 231.305 9.80114C231.669 9.47538 231.851 9.06818 231.851 8.57955C231.851 8.21212 231.758 7.875 231.572 7.56818C231.387 7.26136 231.122 7.01705 230.777 6.83523C230.436 6.65341 230.031 6.5625 229.561 6.5625H226.964V10.2898ZM226.964 5.19318H229.317C229.711 5.19318 230.065 5.11742 230.379 4.96591C230.697 4.81439 230.949 4.60227 231.135 4.32955C231.324 4.05303 231.419 3.72727 231.419 3.35227C231.419 2.87121 231.25 2.4678 230.913 2.14205C230.576 1.81629 230.059 1.65341 229.362 1.65341H226.964V5.19318Z" fill="#0061D9"/>
<path d="M236.751 4.85227H239.887C240.751 4.85227 241.485 4.99242 242.091 5.27273C242.697 5.55303 243.16 5.94886 243.478 6.46023C243.8 6.97159 243.959 7.57386 243.955 8.26705C243.959 8.96023 243.8 9.57197 243.478 10.1023C243.16 10.6326 242.697 11.0473 242.091 11.3466C241.485 11.6458 240.751 11.7955 239.887 11.7955H235.529V0.159091H237.29V10.3182H239.887C240.391 10.3182 240.815 10.2197 241.16 10.0227C241.508 9.82576 241.771 9.57008 241.949 9.25568C242.131 8.94129 242.222 8.60417 242.222 8.24432C242.222 7.72159 242.021 7.27273 241.62 6.89773C241.218 6.51894 240.641 6.32955 239.887 6.32955H236.751V4.85227ZM246.79 0.159091V11.7955H245.029V0.159091H246.79Z" fill="#0061D9"/>
<path d="M249.186 11.7955V0.159091H256.481V1.67045H250.941V5.21591H256.1V6.72159H250.941V10.2841H256.549V11.7955H249.186Z" fill="#0061D9"/>
<path d="M49.1225 33.608V29.3068H49.8895C50.1509 29.0871 50.3952 28.7746 50.6225 28.3693C50.8498 27.964 51.043 27.4167 51.202 26.7273C51.3611 26.0379 51.471 25.1534 51.5316 24.0739L51.8043 19.1591H58.9805V29.3068H60.2986V33.5909H58.6168V30.7955H50.8043V33.608H49.1225ZM51.9577 29.3068H57.2986V20.6705H53.3952L53.2134 24.0739C53.1642 24.8958 53.0827 25.6345 52.9691 26.2898C52.8592 26.9451 52.7172 27.5246 52.543 28.0284C52.3725 28.5284 52.1774 28.9545 51.9577 29.3068Z" fill="#0061D9"/>
<path d="M72.1699 24.9773C72.1699 26.2197 71.9426 27.2879 71.4881 28.1818C71.0335 29.072 70.4104 29.7576 69.6187 30.2386C68.8309 30.7159 67.935 30.9545 66.9312 30.9545C65.9237 30.9545 65.0241 30.7159 64.2324 30.2386C63.4445 29.7576 62.8233 29.0701 62.3687 28.1761C61.9142 27.2822 61.6869 26.2159 61.6869 24.9773C61.6869 23.7348 61.9142 22.6686 62.3687 21.7784C62.8233 20.8845 63.4445 20.1989 64.2324 19.7216C65.0241 19.2405 65.9237 19 66.9312 19C67.935 19 68.8309 19.2405 69.6187 19.7216C70.4104 20.1989 71.0335 20.8845 71.4881 21.7784C71.9426 22.6686 72.1699 23.7348 72.1699 24.9773ZM70.4312 24.9773C70.4312 24.0303 70.2778 23.233 69.971 22.5852C69.668 21.9337 69.2513 21.4413 68.721 21.108C68.1945 20.7708 67.5979 20.6023 66.9312 20.6023C66.2608 20.6023 65.6623 20.7708 65.1358 21.108C64.6093 21.4413 64.1926 21.9337 63.8858 22.5852C63.5828 23.233 63.4312 24.0303 63.4312 24.9773C63.4312 25.9242 63.5828 26.7235 63.8858 27.375C64.1926 28.0227 64.6093 28.5152 65.1358 28.8523C65.6623 29.1856 66.2608 29.3523 66.9312 29.3523C67.5979 29.3523 68.1945 29.1856 68.721 28.8523C69.2513 28.5152 69.668 28.0227 69.971 27.375C70.2778 26.7235 70.4312 25.9242 70.4312 24.9773Z" fill="#0061D9"/>
<path d="M81.1022 30.7955L77.1931 25.5795H75.9545V30.7955H74.1988V19.1591H75.9545V24.0739H76.5283L80.9261 19.1591H83.0681L78.4147 24.3693L83.2443 30.7955H81.1022Z" fill="#0061D9"/>
<path d="M85.5345 30.9545V29.4091H86.2334C86.5251 29.4091 86.7656 29.3598 86.955 29.2614C87.1482 29.1629 87.3054 29.0303 87.4266 28.8636C87.5516 28.6932 87.6558 28.5076 87.7391 28.3068L87.9039 27.892L83.813 19.1591H85.6766L88.7277 25.8864L91.4436 19.1591H93.2845L89.2618 28.7784C89.0914 29.1648 88.8944 29.5227 88.6709 29.8523C88.4512 30.1818 88.1576 30.4489 87.7902 30.6534C87.4228 30.8542 86.9361 30.9545 86.33 30.9545H85.5345Z" fill="#0061D9"/>
<path d="M94.7851 19.1591H96.9157L100.62 28.2045H100.757L104.461 19.1591H106.592V30.7955H104.921V22.375H104.813L101.382 30.7784H99.9953L96.5635 22.3693H96.4555V30.7955H94.7851V19.1591Z" fill="#0061D9"/>
<path d="M108.984 30.7955V19.1591H116.28V20.6705H110.74V24.2159H115.899V25.7216H110.74V29.2841H116.348V30.7955H108.984Z" fill="#0061D9"/>
<path d="M118.465 30.7955V19.1591H120.221V24.2159H126.022V19.1591H127.783V30.7955H126.022V25.7216H120.221V30.7955H118.465Z" fill="#0061D9"/>
<path d="M129.606 20.6705V19.1591H138.612V20.6705H134.981V30.7955H133.231V20.6705H129.606Z" fill="#0061D9"/>
<path d="M141.675 23.8523H144.811C145.675 23.8523 146.41 23.9924 147.016 24.2727C147.622 24.553 148.084 24.9489 148.402 25.4602C148.724 25.9716 148.883 26.5739 148.879 27.267C148.883 27.9602 148.724 28.572 148.402 29.1023C148.084 29.6326 147.622 30.0473 147.016 30.3466C146.41 30.6458 145.675 30.7955 144.811 30.7955H140.453V19.1591H142.215V29.3182H144.811C145.315 29.3182 145.739 29.2197 146.084 29.0227C146.432 28.8258 146.696 28.5701 146.874 28.2557C147.056 27.9413 147.146 27.6042 147.146 27.2443C147.146 26.7216 146.946 26.2727 146.544 25.8977C146.143 25.5189 145.565 25.3295 144.811 25.3295H141.675V23.8523ZM151.715 19.1591V30.7955H149.953V19.1591H151.715Z" fill="#0061D9"/>
</svg>
